<svg width="14" height="14" viewBox="0 0 14 14" fill="none" xmlns="http://www.w3.org/2000/svg">
<path d="M7.97125 4.33268H1.40974C0.686009 4.33268 0.0974426 4.92125 0.0974426 5.64498V12.2065C0.0974426 12.9302 0.686009 13.5188 1.40974 13.5188H7.97125C8.69498 13.5188 9.28355 12.9302 9.28355 12.2065V5.64498C9.28355 4.92125 8.69498 4.33268 7.97125 4.33268Z" fill="white"/>
<path d="M11.9081 0.395782H5.34664C4.9986 0.395782 4.66481 0.534042 4.41871 0.780146C4.1726 1.02625 4.03434 1.36004 4.03434 1.70808V3.02038H9.28355C9.63159 3.02038 9.96538 3.15864 10.2115 3.40475C10.4576 3.65085 10.5958 3.98464 10.5958 4.33268V9.58189H11.9081C12.2562 9.58189 12.59 9.44363 12.8361 9.19752C13.0822 8.95142 13.2204 8.61763 13.2204 8.26959V1.70808C13.2204 1.36004 13.0822 1.02625 12.8361 0.780146C12.59 0.534042 12.2562 0.395782 11.9081 0.395782Z" fill="white"/>
</svg>
