<svg width="15" height="15" viewBox="0 0 15 15" fill="none" xmlns="http://www.w3.org/2000/svg">
<path d="M7.37625 0.677322C11.1406 0.677322 14.1921 3.7291 14.1921 7.4932C14.1921 11.2573 11.1406 14.3091 7.37625 14.3091C3.61237 14.3091 0.560364 11.2571 0.560364 7.4932C0.560364 3.72933 3.61237 0.677322 7.37625 0.677322ZM7.37625 1.6997C4.17702 1.6997 1.58275 4.29397 1.58275 7.4932C1.58275 10.6924 4.17702 13.2867 7.37625 13.2867C10.5759 13.2867 13.1697 10.6927 13.1697 7.4932C13.1697 4.29373 10.5759 1.6997 7.37625 1.6997ZM7.37972 9.56925C7.66205 9.56925 7.89091 9.79812 7.89091 10.0804C7.89091 10.3392 7.6986 10.5531 7.44909 10.587L7.37291 10.5916C7.09058 10.5916 6.86171 10.3628 6.86171 10.0804C6.86171 9.82165 7.05403 9.60777 7.30354 9.57392L7.37972 9.56925ZM7.37291 4.39477C7.6317 4.39477 7.84558 4.58708 7.87943 4.8366L7.8841 4.90596V7.9179C7.8841 8.20022 7.65523 8.42909 7.37291 8.42909C7.11411 8.42909 6.90023 8.23678 6.86638 7.98727L6.86171 7.9179V4.90596C6.86171 4.62364 7.09058 4.39477 7.37291 4.39477Z" fill="black"/>
</svg>
