<svg width="21" height="15" viewBox="0 0 21 15" fill="none" xmlns="http://www.w3.org/2000/svg">
<path d="M0.361847 1.83417C0.361847 1.56895 0.467204 1.3146 0.65474 1.12706C0.842276 0.939525 1.09663 0.834167 1.36185 0.834167H19.3618C19.6271 0.834167 19.8814 0.939525 20.069 1.12706C20.2565 1.3146 20.3618 1.56895 20.3618 1.83417C20.3618 2.09938 20.2565 2.35374 20.069 2.54127C19.8814 2.72881 19.6271 2.83417 19.3618 2.83417H1.36185C1.09663 2.83417 0.842276 2.72881 0.65474 2.54127C0.467204 2.35374 0.361847 2.09938 0.361847 1.83417Z" fill="black"/>
<path d="M0.361847 7.86618C0.361847 7.60096 0.467204 7.34661 0.65474 7.15907C0.842276 6.97154 1.09663 6.86618 1.36185 6.86618H19.3618C19.6271 6.86618 19.8814 6.97154 20.069 7.15907C20.2565 7.34661 20.3618 7.60096 20.3618 7.86618C20.3618 8.1314 20.2565 8.38575 20.069 8.57329C19.8814 8.76082 19.6271 8.86618 19.3618 8.86618H1.36185C1.09663 8.86618 0.842276 8.76082 0.65474 8.57329C0.467204 8.38575 0.361847 8.1314 0.361847 7.86618Z" fill="black"/>
<path d="M1.36185 12.8982C1.09663 12.8982 0.842276 13.0035 0.65474 13.1911C0.467204 13.3786 0.361847 13.6329 0.361847 13.8982C0.361847 14.1634 0.467204 14.4177 0.65474 14.6053C0.842276 14.7928 1.09663 14.8982 1.36185 14.8982H19.3618C19.6271 14.8982 19.8814 14.7928 20.069 14.6053C20.2565 14.4177 20.3618 14.1634 20.3618 13.8982C20.3618 13.6329 20.2565 13.3786 20.069 13.1911C19.8814 13.0035 19.6271 12.8982 19.3618 12.8982H1.36185Z" fill="black"/>
</svg>
