<svg width="15" height="14" viewBox="0 0 15 14" fill="none" xmlns="http://www.w3.org/2000/svg">
<path fill-rule="evenodd" clip-rule="evenodd" d="M8.27629 1.2395C8.35692 1.15867 8.4527 1.09454 8.55816 1.05078C8.66361 1.00702 8.77666 0.984497 8.89083 0.984497C9.00501 0.984497 9.11806 1.00702 9.22351 1.05078C9.32896 1.09454 9.42475 1.15867 9.50538 1.2395L14.7134 6.4475C14.7942 6.52813 14.8583 6.62392 14.9021 6.72937C14.9459 6.83482 14.9684 6.94788 14.9684 7.06205C14.9684 7.17622 14.9459 7.28927 14.9021 7.39472C14.8583 7.50018 14.7942 7.59596 14.7134 7.67659L9.50538 12.8846C9.34239 13.0476 9.12133 13.1391 8.89083 13.1391C8.66034 13.1391 8.43928 13.0476 8.27629 12.8846C8.1133 12.7216 8.02174 12.5005 8.02174 12.27C8.02174 12.0395 8.1133 11.8185 8.27629 11.6555L12.8715 7.06205L8.27629 2.46859C8.19546 2.38796 8.13132 2.29218 8.08756 2.18672C8.04381 2.08127 8.02128 1.96822 8.02128 1.85405C8.02128 1.73988 8.04381 1.62683 8.08756 1.52137C8.13132 1.41592 8.19546 1.32013 8.27629 1.2395Z" fill="black"/>
<path fill-rule="evenodd" clip-rule="evenodd" d="M0.397485 7.06182C0.397485 6.83161 0.488934 6.61083 0.651715 6.44805C0.814497 6.28527 1.03528 6.19382 1.26548 6.19382H12.5495C12.7797 6.19382 13.0005 6.28527 13.1632 6.44805C13.326 6.61083 13.4175 6.83161 13.4175 7.06182C13.4175 7.29202 13.326 7.5128 13.1632 7.67559C13.0005 7.83837 12.7797 7.92982 12.5495 7.92982H1.26548C1.03528 7.92982 0.814497 7.83837 0.651715 7.67559C0.488934 7.5128 0.397485 7.29202 0.397485 7.06182Z" fill="black"/>
</svg>
