<svg width="13" height="13" viewBox="0 0 13 13" fill="none" xmlns="http://www.w3.org/2000/svg">
<path d="M6.15034 0C2.81624 0 0 2.81624 0 6.15034C0 9.48444 2.81624 12.3007 6.15034 12.3007C9.48444 12.3007 12.3007 9.48444 12.3007 6.15034C12.3007 2.81624 9.48444 0 6.15034 0ZM6.15034 3.07517C7.21251 3.07517 7.99545 3.8575 7.99545 4.92027C7.99545 5.98305 7.21251 6.76538 6.15034 6.76538C5.08879 6.76538 4.30524 5.98305 4.30524 4.92027C4.30524 3.8575 5.08879 3.07517 6.15034 3.07517ZM3.00998 9.08529C3.56166 8.27344 4.48176 7.73221 5.53531 7.73221H6.76538C7.81955 7.73221 8.73902 8.27344 9.29071 9.08529C8.5047 9.92665 7.38964 10.4556 6.15034 10.4556C4.91105 10.4556 3.79599 9.92665 3.00998 9.08529Z" fill="black"/>
</svg>
