<svg width="14" height="14" viewBox="0 0 14 14" fill="none" xmlns="http://www.w3.org/2000/svg">
<path d="M8.64192 6.89212L13.3196 2.22528C13.5245 2.02044 13.6396 1.74261 13.6396 1.45292C13.6396 1.16322 13.5245 0.885394 13.3196 0.680549C13.1148 0.475705 12.837 0.360624 12.5473 0.360624C12.2576 0.360624 11.9797 0.475705 11.7749 0.680549L7.10806 5.35827L2.44122 0.680549C2.23638 0.475705 1.95855 0.360624 1.66886 0.360624C1.37916 0.360624 1.10133 0.475705 0.896489 0.680549C0.691644 0.885394 0.576564 1.16322 0.576564 1.45292C0.576564 1.74261 0.691644 2.02044 0.896489 2.22528L5.57421 6.89212L0.896489 11.559C0.794527 11.6601 0.713598 11.7804 0.65837 11.913C0.603142 12.0455 0.574707 12.1877 0.574707 12.3313C0.574707 12.4749 0.603142 12.6171 0.65837 12.7497C0.713598 12.8822 0.794527 13.0026 0.896489 13.1037C0.997618 13.2057 1.11793 13.2866 1.2505 13.3418C1.38306 13.397 1.52525 13.4255 1.66886 13.4255C1.81246 13.4255 1.95465 13.397 2.08721 13.3418C2.21978 13.2866 2.34009 13.2057 2.44122 13.1037L7.10806 8.42598L11.7749 13.1037C11.876 13.2057 11.9963 13.2866 12.1289 13.3418C12.2615 13.397 12.4037 13.4255 12.5473 13.4255C12.6909 13.4255 12.8331 13.397 12.9656 13.3418C13.0982 13.2866 13.2185 13.2057 13.3196 13.1037C13.4216 13.0026 13.5025 12.8822 13.5578 12.7497C13.613 12.6171 13.6414 12.4749 13.6414 12.3313C13.6414 12.1877 13.613 12.0455 13.5578 11.913C13.5025 11.7804 13.4216 11.6601 13.3196 11.559L8.64192 6.89212Z" fill="black"/>
</svg>
