<svg width="13" height="15" viewBox="0 0 13 15" fill="none" xmlns="http://www.w3.org/2000/svg">
<path d="M8.52754 0.212158C10.769 0.212158 12.1976 1.26248 12.1976 3.32841V13.6289C12.1976 13.9529 12.0721 14.2636 11.8486 14.4928C11.6252 14.7219 11.3221 14.8505 10.9979 14.8505C10.8044 14.8474 10.6143 14.7986 10.431 14.702L6.32325 12.4085L2.23214 14.7068C1.7394 14.9694 1.14233 14.8483 0.76822 14.4096L0.696468 14.3176L0.627925 14.2045C0.538477 14.0294 0.490219 13.8353 0.486938 13.6289V3.45773C0.486938 1.30952 1.88428 0.212158 4.15702 0.212158H8.52754ZM8.52754 1.27179H4.15702C2.40402 1.27179 1.52044 1.96568 1.52044 3.45773L1.52037 13.6201C1.5209 13.6524 1.52879 13.6842 1.52021 13.6719L1.54763 13.7174C1.59486 13.7834 1.68352 13.805 1.74556 13.772L5.83494 11.4751C6.13974 11.3063 6.50699 11.3063 6.81327 11.4759L10.914 13.7653C10.9451 13.7817 10.9794 13.7904 11.0061 13.7909C11.048 13.7909 11.0882 13.7739 11.1178 13.7435C11.1475 13.7131 11.1641 13.6719 11.1641 13.6289V3.32841C11.1641 1.93793 10.2581 1.27179 8.52754 1.27179ZM8.83657 4.83541C9.12196 4.83541 9.35332 5.07262 9.35332 5.36523C9.35332 5.63345 9.15891 5.85512 8.90669 5.89021L8.83657 5.89504H3.81016C3.52476 5.89504 3.2934 5.65784 3.2934 5.36523C3.2934 5.097 3.48781 4.87533 3.74004 4.84025L3.81016 4.83541H8.83657Z" fill="black"/>
</svg>
