<svg width="15" height="15" viewBox="0 0 15 15" fill="none" xmlns="http://www.w3.org/2000/svg">
<path d="M7.8191 0.244263C8.32773 0.244058 8.81479 0.445567 9.16931 0.802885C9.52384 1.1602 9.71566 1.6429 9.70022 2.09339L9.70631 2.19934C9.71869 2.30368 9.75336 2.40437 9.80958 2.49719C9.91912 2.68021 10.0985 2.81302 10.3081 2.86634C10.5177 2.91966 10.7403 2.88911 10.9512 2.76824L11.0687 2.70878C11.951 2.30237 13.0093 2.62534 13.4987 3.45756L13.9385 4.20538C13.9501 4.2251 13.9604 4.24547 13.9692 4.26636L14.01 4.34648C14.4034 5.16913 14.1235 6.14768 13.3761 6.64482L13.1915 6.75846C13.095 6.82437 13.0146 6.91046 12.9541 7.01391C12.8448 7.19765 12.8148 7.41648 12.8707 7.62194C12.9267 7.82741 13.0639 8.00255 13.272 8.12046L13.3918 8.19564C13.7536 8.44358 14.0149 8.80901 14.1289 9.22786C14.2575 9.70042 14.1886 10.2037 13.9338 10.6321L13.4606 11.4044L13.3893 11.5133C12.8333 12.2966 11.7538 12.5359 10.9301 12.0701L10.8324 12.0208C10.7306 11.9761 10.6207 11.9516 10.5206 11.9489C10.303 11.9478 10.094 12.0321 9.94009 12.1829C9.78621 12.3336 9.70022 12.5384 9.70078 12.7765L9.69496 12.8997C9.6153 13.853 8.80074 14.5916 7.81932 14.5916H6.93313C5.89375 14.5916 5.05118 13.7661 5.05223 12.7805L5.04614 12.6746C5.03376 12.5702 4.99908 12.4695 4.94002 12.3719C4.83288 12.1884 4.65538 12.0545 4.44696 11.9998C4.23853 11.9452 4.01647 11.9744 3.80152 12.0961L3.67381 12.1586C3.26991 12.3366 2.81433 12.3695 2.38744 12.2506C1.90581 12.1165 1.49858 11.7999 1.26094 11.3795L0.803737 10.6061L0.742886 10.4915C0.326531 9.63042 0.652891 8.59531 1.48119 8.12632L1.55673 8.07997C1.77801 7.92991 1.91069 7.68252 1.91069 7.41795C1.91069 7.13025 1.75403 6.86441 1.47999 6.70883L1.3688 6.63894C0.569313 6.09423 0.325038 5.03663 0.820311 4.19478L1.28609 3.44491C1.8041 2.56406 2.95209 2.26019 3.83502 2.75628L3.9306 2.8062C4.02804 2.85002 4.13388 2.87327 4.23579 2.87434C4.68515 2.87438 5.05125 2.52085 5.05805 2.06768L5.06416 1.9285C5.10095 1.49762 5.29179 1.09269 5.60377 0.78557C5.95575 0.439064 6.43415 0.244263 6.93313 0.244263H7.8191ZM7.81932 1.28282H6.93313C6.71617 1.28282 6.50816 1.36752 6.35512 1.51818C6.21948 1.65171 6.1365 1.82779 6.12194 1.99221L6.1123 2.21093C6.03809 3.16458 5.22481 3.913 4.23023 3.91287C3.97385 3.91026 3.7211 3.85472 3.46336 3.73803L3.32537 3.66672C2.93217 3.44599 2.43081 3.5787 2.19814 3.97404L1.73236 4.72391C1.51894 5.08682 1.62568 5.54896 1.95615 5.77463L2.14318 5.89067C2.65826 6.23189 2.97073 6.80312 2.97073 7.41795C2.97073 8.0238 2.66698 8.59015 2.14192 8.94567L2.03015 9.01452C1.66225 9.22305 1.52027 9.67335 1.69126 10.028L1.73164 10.1044L2.18304 10.8673C2.28904 11.0547 2.46689 11.193 2.67724 11.2516C2.86367 11.3035 3.06266 11.2891 3.21789 11.2213L3.29588 11.1839C3.72641 10.9378 4.23946 10.8703 4.72099 10.9966C5.20251 11.1228 5.61261 11.4323 5.85586 11.849C5.98672 12.065 6.06952 12.3055 6.10158 12.5819L6.11604 12.8355C6.16066 13.239 6.50946 13.5531 6.93313 13.5531H7.81932C8.24781 13.5531 8.60375 13.2303 8.63718 12.8349L8.64124 12.7566C8.63883 12.2663 8.8366 11.7953 9.19053 11.4485C9.54447 11.1017 10.0252 10.908 10.5374 10.9105C10.7887 10.9171 11.036 10.9723 11.2888 11.0837L11.5155 11.1972C11.8712 11.3502 12.2932 11.2385 12.5071 10.9379L12.5591 10.8582L13.0214 10.1035C13.1306 9.91975 13.1606 9.70092 13.1047 9.49546C13.0551 9.31335 12.9415 9.15445 12.8037 9.0594L12.6084 8.93842C12.2349 8.69111 11.9634 8.31914 11.8465 7.88954C11.7179 7.41698 11.7868 6.91369 12.0362 6.49442C12.1727 6.26094 12.3602 6.06021 12.6048 5.89377L12.7201 5.82262C13.0874 5.61212 13.2293 5.16185 13.0595 4.80589L13.0088 4.71009L12.9997 4.68998L12.5802 3.97607C12.3818 3.63867 11.9689 3.49289 11.6185 3.60807L11.5389 3.63932L11.4649 3.67626C11.0358 3.92394 10.5237 3.99421 10.0417 3.87157C9.55959 3.74894 9.14711 3.44347 8.89659 3.0249C8.76573 2.80888 8.68292 2.56842 8.65087 2.29202L8.64145 2.1112C8.64783 1.89366 8.56406 1.68285 8.40922 1.52679C8.25439 1.37074 8.04168 1.28282 7.81932 1.28282ZM7.37946 5.07346C8.70106 5.07346 9.77243 6.12312 9.77243 7.41795C9.77243 8.71277 8.70106 9.76244 7.37946 9.76244C6.05786 9.76244 4.98649 8.71277 4.98649 7.41795C4.98649 6.12312 6.05786 5.07346 7.37946 5.07346ZM7.37946 6.11202C6.6433 6.11202 6.04653 6.6967 6.04653 7.41795C6.04653 8.13919 6.6433 8.72387 7.37946 8.72387C8.11562 8.72387 8.71239 8.13919 8.71239 7.41795C8.71239 6.6967 8.11562 6.11202 7.37946 6.11202Z" fill="black"/>
</svg>
